<?xml version="1.0" encoding="utf-8"?>
<!-- Generator: Adobe Illustrator 16.0.0, SVG Export Plug-In . SVG Version: 6.00 Build 0)  -->
<!DOCTYPE svg PUBLIC "-//W3C//DTD SVG 1.1//EN" "http://www.w3.org/Graphics/SVG/1.1/DTD/svg11.dtd">
<svg version="1.1" xmlns="http://www.w3.org/2000/svg" xmlns:xlink="http://www.w3.org/1999/xlink" x="0px" y="0px" width="60px"
	 height="60px" viewBox="0 0 60 60" enable-background="new 0 0 60 60" xml:space="preserve">
<g id="Layer_2">
	<g id="Cloud_x5F_Ray">
		<g>
			<path fill="#da2c87" d="M40.688,5.063c-3.594,0-7.063,1.083-10.006,3.093C28.807,4.179,24.75,1.5,20.203,1.5
				c-6.384,0-11.578,5.194-11.578,11.578c0,1.231,0.198,2.453,0.581,3.616C4.581,18.585,1.5,23.066,1.5,28.219
				c0,6.875,5.593,12.469,12.469,12.469h3.563c0.983,0,1.781-0.797,1.781-1.78c0-0.984-0.798-1.781-1.781-1.781h-3.563
				c-4.911,0-8.906-3.996-8.906-8.906c0-4.126,2.922-7.779,6.948-8.682c0.546-0.124,1.004-0.496,1.234-1.008
				c0.229-0.511,0.206-1.101-0.065-1.591c-0.648-1.178-0.992-2.512-0.992-3.86c0-4.42,3.596-8.016,8.016-8.016
				c3.799,0,7.104,2.7,7.855,6.419c0.129,0.631,0.588,1.143,1.2,1.341c0.616,0.2,1.287,0.049,1.757-0.388
				c2.651-2.456,6.086-3.81,9.672-3.81c7.857,0,14.25,6.393,14.25,14.25c0,7.276-5.443,13.366-12.664,14.163
				c-0.978,0.106-1.684,0.987-1.574,1.968c0.107,0.979,1.005,1.671,1.966,1.574C51.691,39.581,58.5,31.969,58.5,22.875
				C58.5,13.052,50.509,5.063,40.688,5.063z M47.813,22.875c0,0.982,0.797,1.781,1.781,1.781s1.781-0.799,1.781-1.781
				c0-5.894-4.794-10.688-10.688-10.688c-0.984,0-1.781,0.797-1.781,1.781c0,0.984,0.797,1.781,1.781,1.781
				C44.615,15.75,47.813,18.947,47.813,22.875z M37.125,31.781h-1.966l1.896-6.636c0.154-0.538,0.047-1.115-0.289-1.561
				c-0.336-0.447-0.861-0.71-1.423-0.71h-7.125c-0.795,0-1.494,0.527-1.713,1.292l-3.563,12.468
				c-0.153,0.539-0.046,1.116,0.291,1.563c0.336,0.445,0.862,0.707,1.422,0.707h1.428L22.903,56.4c-0.156,0.86,0.337,1.709,1.164,2
				c0.194,0.067,0.393,0.1,0.589,0.1c0.64,0,1.251-0.346,1.568-0.936l12.469-23.158c0.297-0.553,0.281-1.219-0.039-1.758
				C38.332,32.111,37.751,31.781,37.125,31.781z M28.421,45.969l1.552-8.525c0.094-0.521-0.049-1.053-0.387-1.459
				c-0.338-0.405-0.838-0.641-1.367-0.641h-1.201l2.544-8.906h3.42l-1.896,6.635c-0.152,0.538-0.046,1.116,0.292,1.563
				c0.336,0.445,0.862,0.708,1.421,0.708h1.346L28.421,45.969z"/>
		</g>
	</g>
</g>
<g id="Layer_4">
</g>
<g id="Layer_3">
	<g>
		<path fill="#d80272" d="M37.125,31.781h-1.966l1.896-6.636c0.154-0.538,0.047-1.115-0.289-1.561
			c-0.336-0.447-0.861-0.71-1.423-0.71H30v3.564h2.982l-1.896,6.635c-0.152,0.538-0.046,1.116,0.292,1.563
			c0.336,0.445,0.862,0.708,1.421,0.708h1.346L30,43.037v7.515l8.693-16.146c0.297-0.553,0.281-1.219-0.039-1.758
			C38.332,32.111,37.751,31.781,37.125,31.781z"/>
		<path fill="#da2c87" d="M47.813,22.875c0,0.982,0.797,1.781,1.781,1.781s1.781-0.799,1.781-1.781
			c0-5.894-4.794-10.688-10.688-10.688c-0.984,0-1.781,0.797-1.781,1.781c0,0.984,0.797,1.781,1.781,1.781
			C44.615,15.75,47.813,18.947,47.813,22.875z"/>
		<path fill="#d80272" d="M40.688,5.063c-3.594,0-7.063,1.083-10.006,3.093C30.48,7.729,30.25,7.321,30,6.926v5.959
			c0.374-0.042,0.732-0.186,1.016-0.45c2.651-2.456,6.086-3.81,9.672-3.81c7.857,0,14.25,6.393,14.25,14.25
			c0,7.276-5.443,13.366-12.664,14.163c-0.978,0.106-1.684,0.987-1.574,1.968c0.107,0.979,1.005,1.671,1.966,1.574
			C51.691,39.581,58.5,31.969,58.5,22.875C58.5,13.052,50.509,5.063,40.688,5.063z"/>
	</g>
</g>
</svg>
