<?xml version="1.0" encoding="utf-8"?>
<!-- Generator: Adobe Illustrator 16.0.0, SVG Export Plug-In . SVG Version: 6.00 Build 0)  -->
<!DOCTYPE svg PUBLIC "-//W3C//DTD SVG 1.1//EN" "http://www.w3.org/Graphics/SVG/1.1/DTD/svg11.dtd">
<svg version="1.1" xmlns="http://www.w3.org/2000/svg" xmlns:xlink="http://www.w3.org/1999/xlink" x="0px" y="0px" width="60px"
	 height="60px" viewBox="0 0 60 60" enable-background="new 0 0 60 60" xml:space="preserve">
<g id="Layer_2">
	<g id="Node_1_">
		<g>
			<path fill="#da2c87" stroke="#34B9B7" stroke-width="0.5" stroke-miterlimit="10" d="M50.754,43.838
				c-1.277,0-2.463,0.371-3.492,0.98L35.938,33.492c0.605-1.028,0.979-2.213,0.979-3.491c0-2.43-1.266-4.563-3.163-5.798
				l2.695-8.087c0.155,0.011,0.308,0.048,0.468,0.048c3.814,0,6.919-3.104,6.919-6.919s-3.104-6.918-6.919-6.918
				s-6.917,3.104-6.917,6.918c0,2.432,1.267,4.562,3.162,5.798l-2.694,8.087c-0.157-0.011-0.308-0.047-0.468-0.047
				c-3.814,0-6.918,3.103-6.918,6.918c0,0.796,0.162,1.547,0.411,2.26l-8.675,5.783c-1.261-1.722-3.28-2.854-5.572-2.854
				c-3.815,0-6.918,3.104-6.918,6.918c0,3.814,3.103,6.918,6.918,6.918s6.918-3.104,6.918-6.918c0-0.258-0.049-0.502-0.076-0.754
				l9.324-6.215c1.224,1.094,2.82,1.779,4.589,1.779c1.277,0,2.463-0.371,3.493-0.98l11.321,11.326
				c-0.604,1.028-0.979,2.213-0.979,3.491c0,3.813,3.104,6.918,6.918,6.918s6.919-3.103,6.919-6.917S54.568,43.838,50.754,43.838z
				 M9.244,45.568c-1.907,0-3.459-1.555-3.459-3.459c0-1.91,1.552-3.461,3.459-3.461c1.907,0,3.459,1.551,3.459,3.461
				C12.703,44.016,11.151,45.568,9.244,45.568z M29.999,33.46c-1.907,0-3.459-1.552-3.459-3.459c0-1.909,1.552-3.459,3.459-3.459
				c1.905,0,3.459,1.55,3.459,3.459C33.458,31.908,31.904,33.46,29.999,33.46z M33.458,9.245c0-1.908,1.554-3.459,3.459-3.459
				c1.906,0,3.459,1.551,3.459,3.459c0,1.907-1.553,3.46-3.459,3.46C35.012,12.705,33.458,11.152,33.458,9.245z M50.754,54.215
				c-1.906,0-3.459-1.551-3.459-3.459c0-1.906,1.553-3.459,3.459-3.459c1.907,0,3.459,1.553,3.459,3.459
				C54.213,52.664,52.661,54.215,50.754,54.215z"/>
		</g>
	</g>
</g>
<g id="Layer_3">
	<path fill="#d80272" stroke="#da2c87" stroke-width="0.5" stroke-miterlimit="10" d="M50.754,43.838
		c-1.277,0-2.463,0.371-3.492,0.98L35.938,33.492c0.605-1.028,0.979-2.213,0.979-3.491c0-2.43-1.266-4.563-3.163-5.798l2.695-8.087
		c0.155,0.011,0.308,0.048,0.468,0.048c3.814,0,6.919-3.104,6.919-6.919s-3.104-6.918-6.919-6.918c-3.808,0-6.905,3.094-6.916,6.898
		V9.26c0.005,2.425,1.27,4.549,3.161,5.783l-2.694,8.087c-0.156-0.011-0.307-0.047-0.467-0.047v3.459
		c1.905,0,3.458,1.55,3.458,3.459c0,1.907-1.553,3.458-3.458,3.459v3.458c1.277,0,2.463-0.371,3.493-0.98l11.321,11.326
		c-0.604,1.028-0.979,2.213-0.979,3.491c0,3.813,3.104,6.918,6.918,6.918s6.919-3.103,6.919-6.917S54.568,43.838,50.754,43.838z
		 M33.458,9.245c0-1.908,1.554-3.459,3.459-3.459c1.906,0,3.459,1.551,3.459,3.459c0,1.907-1.553,3.46-3.459,3.46
		C35.012,12.705,33.458,11.152,33.458,9.245z M50.754,54.215c-1.906,0-3.459-1.551-3.459-3.459c0-1.906,1.553-3.459,3.459-3.459
		c1.907,0,3.459,1.553,3.459,3.459C54.213,52.664,52.661,54.215,50.754,54.215z"/>
</g>
</svg>
