<?xml version="1.0" encoding="utf-8"?>
<!-- Generator: Adobe Illustrator 16.0.0, SVG Export Plug-In . SVG Version: 6.00 Build 0)  -->
<!DOCTYPE svg PUBLIC "-//W3C//DTD SVG 1.1//EN" "http://www.w3.org/Graphics/SVG/1.1/DTD/svg11.dtd">
<svg version="1.1" xmlns="http://www.w3.org/2000/svg" xmlns:xlink="http://www.w3.org/1999/xlink" x="0px" y="0px" width="60px"
	 height="60px" viewBox="0 0 60 60" enable-background="new 0 0 60 60" xml:space="preserve">
<g id="Layer_4_1_">
	<g id="Layer_2_4_">
		<g id="Microphone_3_">
			<g>
				<path fill="#da2c87" d="M30,42.469c6.873,0,12.469-5.593,12.469-12.469V13.969C42.469,7.094,36.873,1.5,30,1.5
					c-6.874,0-12.469,5.594-12.469,12.469V30C17.531,36.876,23.126,42.469,30,42.469z M22.875,26.438h-1.781v-3.563h1.781
					c0.983,0,1.781-0.797,1.781-1.781c0-0.984-0.798-1.781-1.781-1.781h-1.781V15.75h1.781c0.983,0,1.781-0.797,1.781-1.781
					c0-0.984-0.798-1.781-1.781-1.781h-1.601C22.101,8.127,25.699,5.063,30,5.063s7.898,3.065,8.725,7.125h-1.6
					c-0.984,0-1.781,0.797-1.781,1.781c0,0.984,0.797,1.781,1.781,1.781h1.781v3.563h-1.781c-0.984,0-1.781,0.797-1.781,1.781
					c0,0.984,0.797,1.781,1.781,1.781h1.781v3.563h-1.781c-0.984,0-1.781,0.797-1.781,1.781c0,0.982,0.797,1.781,1.781,1.781h1.781
					c0,4.91-3.996,8.906-8.906,8.906c-4.912,0-8.906-3.996-8.906-8.906h1.781c0.983,0,1.781-0.799,1.781-1.781
					C24.656,27.234,23.858,26.438,22.875,26.438z M30,35.344c0.984,0,1.781-0.799,1.781-1.781V10.406
					c0-0.984-0.797-1.781-1.781-1.781s-1.781,0.797-1.781,1.781v23.156C28.219,34.545,29.016,35.344,30,35.344z M42.469,54.938
					h-7.125v-6.103c8.213-2.334,14.25-9.885,14.25-18.835c0-0.982-0.797-1.781-1.781-1.781c-0.982,0-1.781,0.799-1.781,1.781
					c0,8.84-7.191,16.031-16.031,16.031c-8.839,0-16.031-7.191-16.031-16.031c0-0.982-0.797-1.781-1.781-1.781
					c-0.983,0-1.781,0.799-1.781,1.781c0,8.95,6.037,16.501,14.25,18.835v6.103h-7.125c-0.984,0-1.781,0.797-1.781,1.781
					c0,0.982,0.797,1.781,1.781,1.781h24.938c0.984,0,1.781-0.799,1.781-1.781C44.25,55.734,43.453,54.938,42.469,54.938z
					 M31.781,54.938h-3.564v-5.435c0.589,0.056,1.181,0.091,1.781,0.091c0.602,0,1.193-0.035,1.781-0.091v5.435H31.781z"/>
			</g>
		</g>
	</g>
</g>
<g id="Layer_5_1_">
	<g>
		<path fill="#d80272" d="M42.469,54.938h-7.125v-6.103c8.213-2.334,14.25-9.885,14.25-18.835c0-0.982-0.797-1.781-1.781-1.781
			c-0.982,0-1.781,0.799-1.781,1.781c0,8.84-7.191,16.031-16.031,16.031v3.563c0.601,0,1.192-0.035,1.779-0.091v5.435H30V58.5
			h12.469c0.984,0,1.781-0.799,1.781-1.781C44.25,55.734,43.453,54.938,42.469,54.938z"/>
		<path fill="#da2c87" d="M30,5.063c4.301,0,7.898,3.065,8.725,7.125h-1.6c-0.984,0-1.781,0.797-1.781,1.781
			c0,0.984,0.797,1.781,1.781,1.781h1.781v3.563h-1.781c-0.984,0-1.781,0.797-1.781,1.781c0,0.984,0.797,1.781,1.781,1.781h1.781
			v3.563h-1.781c-0.984,0-1.781,0.797-1.781,1.781c0,0.982,0.797,1.781,1.781,1.781h1.781c0,4.91-3.996,8.906-8.906,8.906v3.563
			c6.873,0,12.469-5.593,12.469-12.469V13.969C42.469,7.094,36.873,1.5,30,1.5V5.063z"/>
		<path fill="#d80272" d="M31.781,33.563V10.406c0-0.984-0.797-1.781-1.781-1.781v26.719C30.984,35.344,31.781,34.545,31.781,33.563
			z"/>
	</g>
</g>
</svg>
